<svg id="artwork" xmlns="http://www.w3.org/2000/svg" xmlns:xlink="http://www.w3.org/1999/xlink" width="135" height="40" viewBox="0 0 135 40"><defs><style>.cls-1{fill:#a6a6a6;}.cls-10,.cls-2,.cls-9{fill:#fff;}.cls-3{fill:url(#linear-gradient);}.cls-4{fill:url(#linear-gradient-2);}.cls-5{fill:url(#linear-gradient-3);}.cls-6{fill:url(#linear-gradient-4);}.cls-7{opacity:0.2;}.cls-7,.cls-8,.cls-9{isolation:isolate;}.cls-8{opacity:0.12;}.cls-9{opacity:0.25;}.cls-10{stroke:#fff;stroke-miterlimit:10;stroke-width:0.2px;}</style><linearGradient id="linear-gradient" x1="21.8" y1="173.29" x2="5.017" y2="156.508" gradientTransform="matrix(1, 0, 0, -1, 0, 182)" gradientUnits="userSpaceOnUse"><stop offset="0" stop-color="#00a0ff"/><stop offset="0.007" stop-color="#00a1ff"/><stop offset="0.26" stop-color="#00beff"/><stop offset="0.512" stop-color="#00d2ff"/><stop offset="0.76" stop-color="#00dfff"/><stop offset="1" stop-color="#00e3ff"/></linearGradient><linearGradient id="linear-gradient-2" x1="33.834" y1="161.999" x2="9.637" y2="161.999" gradientTransform="matrix(1, 0, 0, -1, 0, 182)" gradientUnits="userSpaceOnUse"><stop offset="0" stop-color="#ffe000"/><stop offset="0.409" stop-color="#ffbd00"/><stop offset="0.775" stop-color="orange"/><stop offset="1" stop-color="#ff9c00"/></linearGradient><linearGradient id="linear-gradient-3" x1="24.827" y1="159.704" x2="2.069" y2="136.946" gradientTransform="matrix(1, 0, 0, -1, 0, 182)" gradientUnits="userSpaceOnUse"><stop offset="0" stop-color="#ff3a44"/><stop offset="1" stop-color="#c31162"/></linearGradient><linearGradient id="linear-gradient-4" x1="7.297" y1="181.824" x2="17.46" y2="171.661" gradientTransform="matrix(1, 0, 0, -1, 0, 182)" gradientUnits="userSpaceOnUse"><stop offset="0" stop-color="#32a071"/><stop offset="0.069" stop-color="#2da771"/><stop offset="0.476" stop-color="#15cf74"/><stop offset="0.801" stop-color="#06e775"/><stop offset="1" stop-color="#00f076"/></linearGradient></defs><rect width="135" height="40" rx="5"/><path class="cls-1" d="M130,.8A4.2,4.2,0,0,1,134.2,5V35a4.2,4.2,0,0,1-4.2,4.2H5A4.2,4.2,0,0,1,.8,35V5A4.2,4.2,0,0,1,5,.8H130m0-.8H5A5.015,5.015,0,0,0,0,5V35a5.015,5.015,0,0,0,5,5H130a5.015,5.015,0,0,0,5-5V5a5.015,5.015,0,0,0-5-5Z"/><path class="cls-2" d="M68.136,21.752a4.253,4.253,0,1,0,4.269,4.253A4.192,4.192,0,0,0,68.136,21.752Zm0,6.831a2.585,2.585,0,1,1,2.4-2.578A2.461,2.461,0,0,1,68.136,28.583Zm-9.314-6.831a4.253,4.253,0,1,0,4.27,4.253A4.192,4.192,0,0,0,58.822,21.752Zm0,6.831a2.585,2.585,0,1,1,2.4-2.578A2.461,2.461,0,0,1,58.822,28.583ZM47.744,23.057v1.8h4.317a3.766,3.766,0,0,1-.983,2.272,4.42,4.42,0,0,1-3.334,1.321,4.8,4.8,0,0,1,0-9.6A4.6,4.6,0,0,1,51,20.141l1.273-1.273a6.3,6.3,0,0,0-4.527-1.821,6.606,6.606,0,1,0,0,13.211,6.036,6.036,0,0,0,4.607-1.853,5.962,5.962,0,0,0,1.563-4.221,5.836,5.836,0,0,0-.1-1.127Zm45.308,1.4a3.954,3.954,0,0,0-3.641-2.706A4.042,4.042,0,0,0,85.4,26.005a4.162,4.162,0,0,0,4.22,4.253,4.232,4.232,0,0,0,3.545-1.885l-1.45-.966a2.432,2.432,0,0,1-2.095,1.176,2.164,2.164,0,0,1-2.062-1.289l5.687-2.352Zm-5.8,1.418A2.333,2.333,0,0,1,89.475,23.4a1.648,1.648,0,0,1,1.579.9ZM82.628,30H84.5V17.5H82.628Zm-3.061-7.3H79.5a2.948,2.948,0,0,0-2.239-.95,4.257,4.257,0,0,0,0,8.506,2.9,2.9,0,0,0,2.239-.967h.064V29.9c0,1.627-.87,2.5-2.271,2.5a2.354,2.354,0,0,1-2.143-1.515l-1.627.677a4.053,4.053,0,0,0,3.77,2.513c2.191,0,4.044-1.289,4.044-4.43V22.009H79.567Zm-2.142,5.881a2.587,2.587,0,0,1,0-5.156A2.4,2.4,0,0,1,79.7,26.021,2.377,2.377,0,0,1,77.425,28.583ZM101.806,17.5H97.335V30H99.2V25.264h2.606a3.888,3.888,0,1,0,0-7.765Zm.048,6.025H99.2V19.239h2.654a2.143,2.143,0,1,1,0,4.285Zm11.532-1.8a3.5,3.5,0,0,0-3.33,1.914l1.657.691a1.769,1.769,0,0,1,1.705-.917,1.8,1.8,0,0,1,1.962,1.609v.128a4.131,4.131,0,0,0-1.946-.482c-1.785,0-3.6.981-3.6,2.814a2.889,2.889,0,0,0,3.1,2.751,2.633,2.633,0,0,0,2.381-1.223h.064v.965h1.8V25.187C117.181,22.967,115.525,21.729,113.386,21.729Zm-.226,6.851c-.611,0-1.463-.3-1.463-1.061,0-.965,1.061-1.335,1.978-1.335a3.329,3.329,0,0,1,1.7.418A2.262,2.262,0,0,1,113.16,28.58ZM123.743,22l-2.139,5.42h-.064L119.32,22h-2.01l3.329,7.575-1.9,4.214h1.946L125.818,22Zm-16.807,8H108.8V17.5h-1.866Z"/><path class="cls-3" d="M10.435,7.538a2,2,0,0,0-.463,1.4V31.059a2,2,0,0,0,.463,1.4l.074.072L22.9,20.147v-.292L10.509,7.466Z"/><path class="cls-4" d="M27.028,24.279,22.9,20.147v-.292l4.131-4.13.093.053,4.893,2.78c1.4.794,1.4,2.093,0,2.887l-4.893,2.781Z"/><path class="cls-5" d="M27.122,24.225,22.9,20,10.435,32.464a1.626,1.626,0,0,0,2.078.061l14.609-8.3"/><path class="cls-6" d="M27.122,15.777l-14.609-8.3a1.626,1.626,0,0,0-2.078.061L22.9,20Z"/><path class="cls-7" d="M27.029,24.132,12.513,32.379a1.663,1.663,0,0,1-2,.011h0l-.075.075h0l.074.072h0a1.663,1.663,0,0,0,2-.011l14.609-8.3Z"/><path class="cls-8" d="M10.435,32.318a2,2,0,0,1-.463-1.4v.146a2,2,0,0,0,.463,1.405l.075-.075Z"/><path class="cls-8" d="M32.015,21.3l-4.986,2.833.093.093,4.893-2.78A1.755,1.755,0,0,0,33.063,20h0A1.864,1.864,0,0,1,32.015,21.3Z"/><path class="cls-9" d="M12.513,7.623l19.5,11.08A1.863,1.863,0,0,1,33.063,20h0a1.755,1.755,0,0,0-1.048-1.444l-19.5-11.08c-1.4-.794-2.541-.134-2.541,1.467V9.09C9.972,7.489,11.116,6.829,12.513,7.623Z"/><path class="cls-10" d="M42.114,14.274h-.738V12.263h.587a2.856,2.856,0,0,0,.763-2.3V7h4.006v5.263h.67v2.011h-.738V13h-4.55ZM43.5,9.967a3.96,3.96,0,0,1-.57,2.3H45.96V7.737H43.5Z"/><path class="cls-10" d="M53.414,12.225a3.116,3.116,0,0,1-4.4,0A3.068,3.068,0,0,1,48.131,10a3.064,3.064,0,0,1,.884-2.224,3.1,3.1,0,0,1,4.395,0A3.067,3.067,0,0,1,54.3,10,3.072,3.072,0,0,1,53.414,12.225Zm-3.83-.5a2.306,2.306,0,0,0,3.26,0A2.348,2.348,0,0,0,53.511,10a2.35,2.35,0,0,0-.667-1.722,2.308,2.308,0,0,0-3.26,0A2.353,2.353,0,0,0,48.918,10,2.352,2.352,0,0,0,49.584,11.722Z"/><path class="cls-10" d="M58.179,13.134A3.063,3.063,0,0,1,55.062,10a3.063,3.063,0,0,1,3.117-3.134,2.777,2.777,0,0,1,2.2.98l-.537.52A2.023,2.023,0,0,0,58.179,7.6a2.268,2.268,0,0,0-1.655.662A2.319,2.319,0,0,0,55.849,10a2.322,2.322,0,0,0,.675,1.735,2.272,2.272,0,0,0,1.655.662,2.369,2.369,0,0,0,1.844-.871l.536.536a2.93,2.93,0,0,1-1.031.783A3.15,3.15,0,0,1,58.179,13.134Z"/><path class="cls-10" d="M63.677,13h-.771V7.737H61.23V7h4.123v.737H63.677Z"/><path class="cls-10" d="M70.646,7l-2.27,5.062a1.509,1.509,0,0,1-1.4,1.072,1.533,1.533,0,0,1-.6-.134l.2-.712a.816.816,0,0,0,.4.109.707.707,0,0,0,.415-.105.948.948,0,0,0,.272-.381l.218-.478L65.87,7h.906l1.483,3.444h.033L69.741,7Z"/><path class="cls-10" d="M71.519,13V7H75.86v6h-.771V7.737h-2.8V13Z"/><path class="cls-10" d="M77.234,13V7h.771V9.572h3V7h.771v6h-.771V10.293h-3V13Z"/><path class="cls-10" d="M88.057,12.225a3.116,3.116,0,0,1-4.4,0A3.068,3.068,0,0,1,82.774,10a3.064,3.064,0,0,1,.884-2.224,3.106,3.106,0,0,1,4.4,0A3.071,3.071,0,0,1,88.941,10,3.072,3.072,0,0,1,88.057,12.225Zm-3.83-.5a2.306,2.306,0,0,0,3.26,0A2.348,2.348,0,0,0,88.154,10a2.35,2.35,0,0,0-.667-1.722,2.308,2.308,0,0,0-3.26,0A2.353,2.353,0,0,0,83.561,10,2.352,2.352,0,0,0,84.227,11.722Z"/><path class="cls-10" d="M92.094,13V7h2.17a1.76,1.76,0,0,1,1.219.465A1.509,1.509,0,0,1,96,8.634a1.3,1.3,0,0,1-.223.754,1.4,1.4,0,0,1-.591.495v.033a1.529,1.529,0,0,1,.73.52,1.365,1.365,0,0,1,.285.855,1.577,1.577,0,0,1-.541,1.223A1.847,1.847,0,0,1,94.381,13Zm.77-3.428h1.4a.9.9,0,0,0,.7-.289.9.9,0,0,0,.008-1.26.862.862,0,0,0-.674-.286H92.864Zm0,2.691h1.551a.922.922,0,0,0,.721-.311,1,1,0,0,0,.276-.678,1.01,1.01,0,0,0-1.031-.981H92.864Z"/></svg>