<svg height="150" viewBox="0 0 500 150" width="500" xmlns="http://www.w3.org/2000/svg"><path d="m464.725 0h-429.425c-1.358 0-2.7 0-4.053.007-1.133.007-2.257.029-3.4.047a48.988 48.988 0 0 0 -7.418.655 24.65 24.65 0 0 0 -7.037 2.32 23.824 23.824 0 0 0 -5.998 4.364 23.154 23.154 0 0 0 -4.361 6 24.449 24.449 0 0 0 -2.314 7.046 48.122 48.122 0 0 0 -.663 7.411c-.034 1.135-.038 2.273-.056 3.408v87.494c.018 1.15.022 2.263.056 3.413a48.1 48.1 0 0 0 .663 7.41 24.4 24.4 0 0 0 2.314 7.05 22.963 22.963 0 0 0 4.361 5.975 23.221 23.221 0 0 0 5.992 4.363 24.809 24.809 0 0 0 7.037 2.336 49.772 49.772 0 0 0 7.418.654c1.144.025 2.268.04 3.4.04 1.359.007 2.696.007 4.059.007h429.43c1.331 0 2.683 0 4.013-.007 1.128 0 2.285-.015 3.413-.04a49.121 49.121 0 0 0 7.4-.654 25.19 25.19 0 0 0 7.064-2.336 23.225 23.225 0 0 0 5.98-4.363 23.646 23.646 0 0 0 4.374-5.975 24.45 24.45 0 0 0 2.292-7.05 50.07 50.07 0 0 0 .687-7.41c.014-1.15.014-2.263.014-3.413.029-1.344.029-2.682.029-4.048v-79.404c0-1.356 0-2.7-.029-4.042 0-1.135 0-2.273-.014-3.408a50.1 50.1 0 0 0 -.687-7.411 24.5 24.5 0 0 0 -2.292-7.046 23.949 23.949 0 0 0 -10.36-10.364 25.026 25.026 0 0 0 -7.064-2.32 48.355 48.355 0 0 0 -7.4-.655c-1.128-.018-2.285-.04-3.413-.047-1.329-.007-2.681-.007-4.012-.007z" fill="#b6b6b6"/><path d="m31.26 146.761c-1.128 0-2.228-.014-3.347-.04a46.957 46.957 0 0 1 -6.919-.6 21.761 21.761 0 0 1 -6.133-2.029 19.982 19.982 0 0 1 -5.171-3.763 19.676 19.676 0 0 1 -3.778-5.169 21.205 21.205 0 0 1 -2.01-6.135 45.936 45.936 0 0 1 -.616-6.94c-.023-.781-.054-3.38-.054-3.38v-87.447s.032-2.559.054-3.311a45.732 45.732 0 0 1 .613-6.93 21.328 21.328 0 0 1 2.011-6.152 19.886 19.886 0 0 1 3.758-5.175 20.6 20.6 0 0 1 5.191-3.785 21.581 21.581 0 0 1 6.12-2.014 46.685 46.685 0 0 1 6.943-.607l3.34-.045h437.458l3.38.047a45.813 45.813 0 0 1 6.879.6 21.972 21.972 0 0 1 6.185 2.028 20.691 20.691 0 0 1 8.94 8.958 21.334 21.334 0 0 1 1.981 6.1 48.026 48.026 0 0 1 .643 6.985c.011 1.049.011 2.175.011 3.295.029 1.389.029 2.71.029 4.042v79.4c0 1.344 0 2.657-.029 3.98 0 1.2 0 2.306-.014 3.441a47.153 47.153 0 0 1 -.633 6.861 21.243 21.243 0 0 1 -2 6.182 20.253 20.253 0 0 1 -3.759 5.129 20.025 20.025 0 0 1 -5.18 3.785 21.712 21.712 0 0 1 -6.175 2.036 46.422 46.422 0 0 1 -6.919.6c-1.084.026-2.22.04-3.322.04l-4.013.007z"/><g fill="#fff"><path d="m167.538 99.86-4.338 13.14h-5.58l14.2-41.786h6.51l14.254 41.786h-5.766l-4.463-13.14zm13.7-4.215-4.092-12.028c-.93-2.727-1.55-5.207-2.17-7.625h-.123c-.621 2.48-1.3 5.022-2.108 7.564l-4.092 12.089z"/><path d="m196.741 92.793c0-3.844-.124-6.943-.248-9.8h4.9l.248 5.146h.124a11.8 11.8 0 0 1 10.664-5.829c7.253 0 12.709 6.138 12.709 15.251 0 10.788-6.572 16.12-13.639 16.12a10.525 10.525 0 0 1 -9.238-4.711h-.124v16.3h-5.393zm5.393 8a12.265 12.265 0 0 0 .248 2.231 8.418 8.418 0 0 0 8.184 6.386c5.766 0 9.113-4.712 9.113-11.594 0-6.013-3.161-11.159-8.927-11.159a8.706 8.706 0 0 0 -8.246 6.758 8.848 8.848 0 0 0 -.372 2.232z"/><path d="m229.29 92.793c0-3.844-.124-6.943-.248-9.8h4.9l.249 5.146h.124a11.793 11.793 0 0 1 10.663-5.829c7.254 0 12.71 6.138 12.71 15.251 0 10.788-6.573 16.12-13.64 16.12a10.522 10.522 0 0 1 -9.237-4.711h-.124v16.3h-5.397zm5.394 8a12.265 12.265 0 0 0 .248 2.231 8.416 8.416 0 0 0 8.183 6.386c5.766 0 9.114-4.712 9.114-11.594 0-6.013-3.162-11.159-8.928-11.159a8.7 8.7 0 0 0 -8.245 6.758 8.848 8.848 0 0 0 -.372 2.232z"/><path d="m294.944 111.144a38.929 38.929 0 0 1 -12.833 2.293c-6.323 0-11.531-1.611-15.623-5.517-3.6-3.472-5.828-9.051-5.828-15.561.063-12.462 8.618-21.575 22.629-21.575a25.835 25.835 0 0 1 10.416 1.922l-1.3 4.4a21.652 21.652 0 0 0 -9.237-1.8c-10.167 0-16.8 6.324-16.8 16.8 0 10.6 6.386 16.864 16.119 16.864 3.535 0 5.952-.5 7.192-1.117v-12.453h-8.493v-4.342h13.762z"/><path d="m318.505 113-.434-3.782h-.186a11.176 11.176 0 0 1 -9.175 4.464c-6.076 0-9.176-4.278-9.176-8.618 0-7.254 6.447-11.221 18.041-11.159v-.62c0-2.479-.681-6.943-6.819-6.943a14.96 14.96 0 0 0 -7.812 2.231l-1.24-3.6a18.621 18.621 0 0 1 9.858-2.666c9.175 0 11.407 6.262 11.407 12.276v11.221a42.251 42.251 0 0 0 .5 7.192zm-.805-15.31c-5.952-.124-12.709.931-12.709 6.758a4.828 4.828 0 0 0 5.146 5.208 7.466 7.466 0 0 0 7.253-5.021 5.706 5.706 0 0 0 .31-1.737z"/><path d="m328.487 68.986h5.456v44.014h-5.456z"/><path d="m343.119 68.986h5.456v44.014h-5.456z"/><path d="m359.177 98.993c.124 7.377 4.836 10.415 10.291 10.415a19.709 19.709 0 0 0 8.307-1.55l.931 3.906a24.3 24.3 0 0 1 -9.981 1.86c-9.238 0-14.756-6.076-14.756-15.127s5.332-16.182 14.073-16.182c9.8 0 12.4 8.619 12.4 14.136a20.84 20.84 0 0 1 -.185 2.542zm16-3.906c.062-3.472-1.426-8.865-7.564-8.865-5.517 0-7.935 5.083-8.369 8.865z"/><path d="m385.588 92.359c0-3.534-.062-6.572-.248-9.361h4.774l.186 5.89h.248c1.364-4.031 4.649-6.573 8.307-6.573a5.894 5.894 0 0 1 1.55.187v5.145a8.187 8.187 0 0 0 -1.859-.186c-3.844 0-6.572 2.914-7.317 7.006a15.357 15.357 0 0 0 -.248 2.542v16h-5.393z"/><path d="m411.565 83 6.572 17.731c.682 1.984 1.425 4.339 1.922 6.137h.124c.558-1.8 1.177-4.092 1.921-6.262l5.953-17.606h5.765l-8.183 21.389c-3.907 10.291-6.573 15.56-10.292 18.784a14.774 14.774 0 0 1 -6.7 3.534l-1.364-4.588a14.427 14.427 0 0 0 4.775-2.666 16.547 16.547 0 0 0 4.587-6.075 3.916 3.916 0 0 0 .434-1.3 4.757 4.757 0 0 0 -.372-1.426l-11.094-27.652z"/><path d="m173.931 39c0 7.423-4.512 11.358-10.015 11.358-5.7 0-9.7-4.415-9.7-10.942 0-6.848 4.256-11.327 10.015-11.327 5.892-.003 9.7 4.511 9.7 10.911zm-16.735.352c0 4.607 2.5 8.735 6.88 8.735 4.415 0 6.911-4.063 6.911-8.959 0-4.288-2.24-8.768-6.88-8.768-4.607-.003-6.907 4.253-6.907 8.989z"/><path d="m181.388 30.806h-6.56v-2.369h15.972v2.369h-6.6v19.194h-2.816z"/><path d="m195.948 28.437v9.568h.864l7.391-9.568h3.36l-8.16 9.888c3.552.48 4.928 2.655 6.048 5.568a56.549 56.549 0 0 0 2.368 6.107h-3.008a38.183 38.183 0 0 1 -1.952-5.088c-.992-2.848-2.368-4.8-6.015-4.8h-.9v9.888h-2.744v-21.563z"/><path d="m210.54 28.693a32.373 32.373 0 0 1 5.343-.416c2.752 0 4.768.64 6.048 1.792a5.8 5.8 0 0 1 1.888 4.512 6.346 6.346 0 0 1 -1.664 4.607 8.933 8.933 0 0 1 -6.592 2.369 9.565 9.565 0 0 1 -2.239-.193v8.636h-2.784zm2.784 10.4a9.333 9.333 0 0 0 2.3.223c3.36 0 5.408-1.631 5.408-4.607 0-2.848-2.016-4.224-5.088-4.224a11.672 11.672 0 0 0 -2.623.224z"/><path d="m245.738 39c0 7.423-4.511 11.358-10.015 11.358-5.7 0-9.7-4.415-9.7-10.942 0-6.848 4.256-11.327 10.015-11.327 5.893-.003 9.7 4.511 9.7 10.911zm-16.738.349c0 4.607 2.5 8.735 6.879 8.735 4.416 0 6.912-4.063 6.912-8.959 0-4.288-2.24-8.768-6.88-8.768-4.603 0-6.911 4.256-6.911 8.992z"/><path d="m251.979 28.437v9.087c0 3.424-.064 6.241-.255 9.121l.063.031c1.088-2.239 2.433-4.575 4-7.135l6.976-11.1h2.784v21.559h-2.624v-9.18c0-3.487.032-6.047.256-8.767l-.1-.032a65.887 65.887 0 0 1 -4 7.264l-6.748 10.715h-2.976v-21.563zm3.52-4.511c.128.992.448 1.983 1.952 1.983 1.472 0 1.824-.928 1.952-1.983h2.144c-.16 2.112-1.441 3.424-4.16 3.424-2.623 0-3.871-1.312-4.032-3.424z"/><path d="m274.507 30.806h-6.56v-2.369h15.967v2.369h-6.591v19.194h-2.816z"/><path d="m297.482 39.893h-8.382v7.775h9.342v2.332h-12.127v-21.563h11.648v2.336h-8.863v6.816h8.382z"/><path d="m308.843 28.726a26.966 26.966 0 0 1 5.088-.449c2.784 0 4.575.481 5.92 1.569a4.522 4.522 0 0 1 1.791 3.807 5.12 5.12 0 0 1 -3.648 4.736v.064a5.558 5.558 0 0 1 4.448 5.407 5.814 5.814 0 0 1 -1.824 4.32c-1.5 1.376-3.935 2.016-7.455 2.016a32.335 32.335 0 0 1 -4.32-.257zm2.784 8.831h2.527c2.945 0 4.672-1.536 4.672-3.616 0-2.528-1.92-3.52-4.735-3.52a12.016 12.016 0 0 0 -2.464.192zm0 10.335a14.854 14.854 0 0 0 2.336.129c2.88 0 5.535-1.057 5.535-4.193 0-2.943-2.527-4.159-5.567-4.159h-2.3z"/></g><rect fill="#c8102e" height="95" rx="26.728" width="95" x="32.76" y="27.5"/><path d="m51.573 75.008h2.519v12.421h-2.519v-5.044h-5.691v5.044h-2.52v-12.421h2.52v5.011h5.691zm14.2 7.11c0 2.019-1 3.1-2.823 3.1s-2.839-1.11-2.839-3.185v-7.018h-2.52v7.1c0 3.493 1.941 5.5 5.325 5.5 3.417 0 5.377-2.042 5.377-5.6v-7.007h-2.52zm29.125 1.431-2.82-8.541h-2.062l-2.816 8.541-2.744-8.535h-2.686l4.33 12.414h2.086l2.824-8.155 2.823 8.155h2.105l4.318-12.414h-2.613zm9.881-1.466h4.583v-2.261h-4.583v-2.542h6.653v-2.264h-9.14v12.405h9.38v-2.263h-6.893zm9.9 5.33h2.487v-12.4h-2.487zm-41.4-2.578-1.13 2.587h-2.584l5.472-12.414h2.223l5.45 12.414h-2.642l-1.116-2.587zm.938-2.239h3.81l-1.911-4.445z" fill="#fff"/><path d="m80.26 59.194a15.831 15.831 0 0 1 -15.813-15.813h2.234a13.579 13.579 0 1 0 27.158 0h2.234a15.831 15.831 0 0 1 -15.813 15.813z" fill="#fff"/></svg>