<svg xmlns="http://www.w3.org/2000/svg" xmlns:xlink="http://www.w3.org/1999/xlink" width="430" height="90"><symbol id="icon--search"><path stroke-width="2" stroke-linecap="square" d="M15.8 16l-4.4-4.4"/><path stroke-width="0" d="M7 .4C3.2.4.2 3.4.2 7.2S3.3 14 7 14c3.8 0 6.8-3 6.8-6.8S10.8.4 7 .4zm0 12.1c-2.9 0-5.3-2.4-5.3-5.3S4.1 1.9 7 1.9s5.3 2.4 5.3 5.3-2.4 5.3-5.3 5.3z"/></symbol><symbol id="icon--settings"><path fill="none" fill-rule="evenodd" stroke-width="1.5" d="M16.95 8.112c-.026-.225-.288-.394-.514-.394-.734 0-1.384-.43-1.657-1.096a1.782 1.782 0 01.447-1.979.445.445 0 00.05-.603 7.915 7.915 0 00-1.268-1.28.446.446 0 00-.608.05c-.477.527-1.334.724-1.996.447a1.777 1.777 0 01-1.08-1.736.444.444 0 00-.393-.468 7.982 7.982 0 00-1.8-.004.445.445 0 00-.396.457A1.78 1.78 0 016.64 3.213c-.654.267-1.505.073-1.98-.45a.446.446 0 00-.605-.051 7.95 7.95 0 00-1.294 1.28.445.445 0 00.048.607 1.77 1.77 0 01.447 1.996c-.276.658-.959 1.081-1.74 1.081a.435.435 0 00-.462.393 8.026 8.026 0 00-.004 1.82c.025.225.295.393.525.393a1.755 1.755 0 011.646 1.096c.28.682.1 1.477-.447 1.979a.444.444 0 00-.049.602 7.94 7.94 0 001.265 1.28c.184.148.45.128.61-.048.478-.529 1.334-.725 1.994-.448.69.289 1.125.987 1.082 1.736a.444.444 0 00.393.467 7.926 7.926 0 001.8.005.445.445 0 00.396-.458 1.778 1.778 0 011.094-1.706c.659-.269 1.505-.072 1.982.45.158.173.42.194.603.051a7.97 7.97 0 001.294-1.28.444.444 0 00-.047-.607 1.772 1.772 0 01-.448-1.996 1.79 1.79 0 011.636-1.084l.099.002c.23.019.44-.158.468-.392.07-.601.072-1.213.004-1.82zM9 11.8A2.803 2.803 0 016.2 9c0-1.544 1.256-2.8 2.8-2.8 1.544 0 2.8 1.256 2.8 2.8 0 1.544-1.256 2.8-2.8 2.8z"/></symbol><symbol id="icon--switch"><path fill-rule="evenodd" d="M0 6h20v1.5H0V6zm0 6h20v1.5H0V12zM0 0h20v1.5H0V0z"/></symbol><symbol id="icon--user"><path fill="none" fill-rule="evenodd" stroke-width="1.5" d="M14.882 13.065c-2.293-.53-4.427-.994-3.394-2.946C14.635 4.177 12.322 1 9 1c-3.388 0-5.642 3.3-2.488 9.119 1.065 1.963-1.15 2.426-3.393 2.946C1.07 13.537.994 14.554 1 16.333c.002.212.004.433.004.667h15.993c0-.226.002-.44.003-.646.008-1.791-.062-2.815-2.118-3.29"/></symbol><symbol id="icon--change-password"><g fill="none" fill-rule="evenodd"><rect width="11.5" height="8.5" x=".75" y="6.75" stroke-width="1.5" rx="2"/><path d="M5.5 9h2v4h-2z"/><path stroke-width="1.5" d="M2.75 6.763h7.5V4.082A3.25 3.25 0 007 .832H6a3.25 3.25 0 00-3.25 3.25v2.681z"/></g></symbol><symbol id="icon--delete-account"><path fill="none" stroke-width="1.5" d="M2.607 3.559l.79 10.691h7.606l.79-10.691H2.607zM.433 3.554h13.621m-9.591-.015L4.852.783h4.696l.389 2.756H4.463z"/></symbol><symbol id="icon--sign-out"><path fill="none" stroke-width="1.5" d="M7.986.768H.791v12.504h7.195M3.04 7.027h7.99M8.985 4.074l2.975 2.951-2.975 3.047"/></symbol><symbol id="icon--exit"><path d="M9.53 8.47l6.267 6.267-1.06 1.06L8.469 9.53l-6.415 6.416-1.061-1.06 6.416-6.417L.594 1.655 1.655.595 8.47 7.408 15.135.743l1.06 1.06L9.53 8.47z"/></symbol><symbol id="icon--right-arrow"><path d="M6.315 7.072L.657 1.414 2.07 0l5.66 5.658 1.414 1.414-7.07 7.071L.657 12.73l5.657-5.657z"/></symbol><symbol id="icon--left-arrow"><path d="M2.828 7.072l5.659-5.658L7.072 0 1.414 5.658 0 7.072l7.071 7.071 1.414-1.414-5.657-5.657z"/></symbol><symbol id="icon--lang"><path d="M7.992 0C3.576 0 0 3.584 0 8s3.576 8 7.992 8C12.416 16 16 12.416 16 8s-3.584-8-8.008-8zm5.544 4.8h-2.36c-.256-1-.624-1.96-1.104-2.848A6.424 6.424 0 0113.536 4.8zM8 1.632A11.27 11.27 0 019.528 4.8H6.472A11.27 11.27 0 018 1.632zM1.808 9.6A6.594 6.594 0 011.6 8c0-.552.08-1.088.208-1.6h2.704A13.212 13.212 0 004.4 8c0 .544.048 1.072.112 1.6H1.808zm.656 1.6h2.36c.256 1 .624 1.96 1.104 2.848A6.39 6.39 0 012.464 11.2zm2.36-6.4h-2.36a6.39 6.39 0 013.464-2.848A12.52 12.52 0 004.824 4.8zM8 14.368A11.27 11.27 0 016.472 11.2h3.056A11.27 11.27 0 018 14.368zM9.872 9.6H6.128A11.77 11.77 0 016 8c0-.544.056-1.08.128-1.6h3.744C9.944 6.92 10 7.456 10 8s-.056 1.072-.128 1.6zm.2 4.448a12.52 12.52 0 001.104-2.848h2.36a6.424 6.424 0 01-3.464 2.848zM11.488 9.6c.064-.528.112-1.056.112-1.6s-.048-1.072-.112-1.6h2.704c.128.512.208 1.048.208 1.6s-.08 1.088-.208 1.6h-2.704z"/></symbol><symbol id="icon--check"><path d="M4 7.78L1.22 5l-.947.94L4 9.667l8-8-.94-.94z"/></symbol><symbol id="icon--user-logged"><path fill="none" stroke-width="1.5" transform="translate(-11 -15)" d="M22.488 25.119C25.635 19.177 23.322 16 20 16c-3.388 0-5.642 3.3-2.488 9.119 1.065 1.963-1.15 2.426-3.393 2.946-2.049.472-2.125 1.489-2.119 3.268.002.212.004.433.004.667h11.59v-3.935c3.053.353 3.816.353 2.288 0-2.293-.53-4.427-.994-3.394-2.946z"/><path stroke-width="0" transform="translate(-11 -15)" d="M28 24c-3.3 0-6 2.7-6 6s2.7 6 6 6 6-2.7 6-6-2.7-6-6-6zm-.75 8.55L24.7 30l1.05-1.05 1.5 1.5 3-3 1.05 1.05-4.05 4.05z"/></symbol><symbol id="icon--notifications"><path fill="none" stroke-width="1.5" stroke-linecap="round" stroke-linejoin="round" d="M19.156 18.236l-2.506-3.557V10.02c0-3.142-2.205-5.76-5.13-6.351V2.234c0-.701-.561-1.27-1.252-1.27a1.26 1.26 0 00-1.252 1.27V3.67c-2.925.59-5.13 3.21-5.13 6.352v4.659L1.38 18.236a1.3 1.3 0 00-.072 1.323c.219.42.65.683 1.118.683H18.11c.47 0 .9-.263 1.119-.683a1.3 1.3 0 00-.072-1.323z"/><path fill="none" stroke-width="1.5" d="M10.268 23.518c1.627 0 2.946-1.44 2.946-3.214H7.321c0 1.775 1.32 3.214 2.947 3.214z"/></symbol><use xlink:href="#icon--search" fill="#656565" stroke="#656565"/><use xlink:href="#icon--search" fill="#fff" stroke="#fff" y="30"/><use xlink:href="#icon--search" fill="#E6E6E6" stroke="#E6E6E6" y="60"/><use xlink:href="#icon--settings" stroke="#656565" x="30"/><use xlink:href="#icon--settings" stroke="#fff" x="30" y="30"/><use xlink:href="#icon--settings" stroke="#E6E6E6" x="30" y="60"/><use xlink:href="#icon--user" stroke="#656565" x="60"/><use xlink:href="#icon--user" stroke="#fff" x="60" y="30"/><use xlink:href="#icon--user" stroke="#E6E6E6" x="60" y="60"/><use xlink:href="#icon--switch" fill="#656565" x="90"/><use xlink:href="#icon--switch" fill="#fff" x="90" y="30"/><use xlink:href="#icon--switch" fill="#E6E6E6" x="90" y="60"/><use xlink:href="#icon--change-password" stroke="#656565" x="120"/><use xlink:href="#icon--change-password" stroke="#fff" x="120" y="30"/><use xlink:href="#icon--change-password" stroke="#E6E6E6" x="120" y="60"/><use xlink:href="#icon--delete-account" stroke="#656565" x="150"/><use xlink:href="#icon--delete-account" stroke="#fff" x="150" y="30"/><use xlink:href="#icon--delete-account" stroke="#E6E6E6" x="150" y="60"/><use xlink:href="#icon--sign-out" stroke="#656565" x="180"/><use xlink:href="#icon--sign-out" stroke="#fff" x="180" y="30"/><use xlink:href="#icon--sign-out" stroke="#E6E6E6" x="180" y="60"/><use xlink:href="#icon--exit" fill="#656565" x="210"/><use xlink:href="#icon--exit" fill="#fff" x="210" y="30"/><use xlink:href="#icon--exit" fill="#E6E6E6" x="210" y="60"/><use xlink:href="#icon--right-arrow" fill="#656565" x="240"/><use xlink:href="#icon--right-arrow" fill="#fff" x="240" y="30"/><use xlink:href="#icon--right-arrow" fill="#E6E6E6" x="240" y="60"/><use xlink:href="#icon--left-arrow" fill="#656565" x="270"/><use xlink:href="#icon--left-arrow" fill="#fff" x="270" y="30"/><use xlink:href="#icon--left-arrow" fill="#E6E6E6" x="270" y="60"/><use xlink:href="#icon--lang" fill="#656565" x="300"/><use xlink:href="#icon--lang" fill="#fff" x="300" y="30"/><use xlink:href="#icon--lang" fill="#E6E6E6" x="300" y="60"/><use xlink:href="#icon--check" fill="#656565" x="330"/><use xlink:href="#icon--check" fill="#fff" x="330" y="30"/><use xlink:href="#icon--check" fill="#E6E6E6" x="330" y="60"/><use xlink:href="#icon--user-logged" fill="#656565" stroke="#656565" x="360"/><use xlink:href="#icon--user-logged" fill="#fff" stroke="#fff" x="360" y="30"/><use xlink:href="#icon--user-logged" fill="#E6E6E6" stroke="#E6E6E6" x="360" y="60"/><use xlink:href="#icon--notifications" stroke="#656565" x="390"/><use xlink:href="#icon--notifications" stroke="#fff" x="390" y="30"/><use xlink:href="#icon--notifications" stroke="#E6E6E6" x="390" y="60"/></svg>